# xmcd CD database file
#
# Track frame offsets:
#	150
#	20719
#	38150
#	57004
#	81176
#	91500
#	111266
#	126233
#	146454
#	161318
#	185032
#	204529
#
# Disc length: 2956 seconds
#
# Revision: 4
# Processed by: cddbd v1.4PL0 Copyright (c) Steve Scherf et al.
# Submitted via: CDex 1.40Beta9
#
DISCID=9b0b8a0c
DTITLE=R.E.M. - Automatic for the People
DYEAR=1992
DGENRE=Rock
TTITLE0=Drive
TTITLE1=I'm Not to Breathe
TTITLE2=The Sidewinder Sleeps Tonite
TTITLE3=Everybody Hurts
TTITLE4=New Orleans Instrumental No. 1
TTITLE5=Sweetness Follows
TTITLE6=Monty Got a Raw Deal
TTITLE7=Ignoreland
TTITLE8=Star Me Kitten
TTITLE9=Man on the Moon
TTITLE10=Nightswimming
TTITLE11=Find the River
EXTD=YEAR: 1992 ID3G: 17
EXTT0=
EXTT1=
EXTT2=
EXTT3=
EXTT4=
EXTT5=
EXTT6=
EXTT7=
EXTT8=
EXTT9=
EXTT10=
EXTT11=
PLAYORDER=
